# xmcd
#
# Track frame offsets:
#	150
#	20646
#	39608
#	54172
#	79720
#	89746
#	111447
#	134585
#	155447
#	175074
#	198488
#	229339
#	267769
#	307830
#
# Disc length: 4336 seconds
#
# Revision: 1
# Processed by: cddbd v1.5.2PL0 Copyright (c) Steve Scherf et al.
# Submitted via: audiograbber 1.83.01
#
DISCID=bb10ee0e
DTITLE=Emory Quinn - Live At Gruene Hall
DYEAR=2010
DGENRE=Country - Rock
TTITLE0=Bring Me Down
TTITLE1=Change
TTITLE2=Whiskey In My Whiskey
TTITLE3=Come Around
TTITLE4=The Sabinal Story
TTITLE5=Highways Of Gold
TTITLE6=Straight Through Me
TTITLE7=Devil's Disguise
TTITLE8=Leave
TTITLE9=Downtown San Antone
TTITLE10=Blue Gone
TTITLE11=Ride
TTITLE12=Dear London
TTITLE13=The Road Company
EXTD=
EXTT0=
EXTT1=
EXTT2=
EXTT3=
EXTT4=
EXTT5=
EXTT6=
EXTT7=
EXTT8=
EXTT9=
EXTT10=
EXTT11=
EXTT12=
EXTT13=
PLAYORDER=
